PathFileType	4	(X/Y/Z)	Run_300 02
DataRate	CameraRate	NumFrames	NumMarkers	Units	OrigDataRate	OrigDataStartFrame	OrigNumFrames
100	100	6	42	mm	100	138	128
Frame#	Time	LASI			RASI			LPSI			RPSI			RTH1			RTH2			RTH3			LTH1			LTH2			LTH3			RTB1			RTB2			RTB3			LTB1			LTB2			LTB3			RCAL			RTOE			RMT5			LCAL			LTOE			LMT5			LACR			RACR			CLAV			C7			RUA1			RUA2			RUA3			RLEL			RMEL			LUA1			LUA2			LUA3			LLEL			LMEL			RFAsuperior			RFAradius			RFAulna			LFAsuperior			LFAradius			LFAulna			
		X1	Y1	Z1	X2	Y2	Z2	X3	Y3	Z3	X4	Y4	Z4	X5	Y5	Z5	X6	Y6	Z6	X7	Y7	Z7	X8	Y8	Z8	X9	Y9	Z9	X10	Y10	Z10	X11	Y11	Z11	X12	Y12	Z12	X13	Y13	Z13	X14	Y14	Z14	X15	Y15	Z15	X16	Y16	Z16	X17	Y17	Z17	X18	Y18	Z18	X19	Y19	Z19	X20	Y20	Z20	X21	Y21	Z21	X22	Y22	Z22	X23	Y23	Z23	X24	Y24	Z24	X25	Y25	Z25	X26	Y26	Z26	X27	Y27	Z27	X28	Y28	Z28	X29	Y29	Z29	X30	Y30	Z30	X31	Y31	Z31	X32	Y32	Z32	X33	Y33	Z33	X34	Y34	Z34	X35	Y35	Z35	X36	Y36	Z36	X37	Y37	Z37	X38	Y38	Z38	X39	Y39	Z39	X40	Y40	Z40	X41	Y41	Z41	X42	Y42	Z42	

127	1.69	840.6075049999999	1039.485787	-480.190132	830.180568	1048.763052	-220.420844	664.420472	1075.637495	-401.588207	663.283124	1071.761889	-300.346684	782.892638	856.745974	-171.143659	901.529925	784.9254560000001	-180.404827	878.951333	654.736622	-213.963915	690.702466	858.10089	-531.264436	737.385958	723.246075	-502.897184	638.655265	630.616167	-482.952808	970.411465	430.405188	-273.581187	936.227502	377.48784	-218.581668	933.067245	266.000718	-283.986304	568.588158	401.065658	-413.630489	479.128638	351.892719	-468.351511	480.637575	270.652009	-405.441081	804.142752	149.072809	-304.646706	1024.836371	96.826385	-302.094015	966.061133	87.105071	-215.330576	311.860533	215.073957	-395.484736	482.62928	69.718515	-356.705334	426.197238	64.68788499999999	-444.393661	850.888177	1508.910184	-532.362868	795.007804	1538.489614	-204.349549	867.622937	1462.587866	-326.058711	759.683439	1542.9241	-378.534987	709.689493	1484.535807	-139.448867	636.018054	1435.314159	-187.511958	631.8717360000001	1383.438259	-127.67475	558.1731119999999	1299.731971	-114.395458	566.991167	1289.010732	-196.319235	826.207068	1414.869468	-609.731106	767.58932	1333.865666	-591.47281	795.137262	1269.282576	-636.957171	811.8298559999999	1183.77747	-655.330953	773.024276	1174.177711	-588.511037	631.922041	1226.147154	-82.244387	752.295238	1123.359311	-83.754808	693.342754	1080.590177	-85.12631399999999	913.860863	1184.680969	-612.153425	1029.005088	1188.668693	-497.00312	1036.65266	1124.869143	-526.324482	
128	1.7	843.418828	1043.27278	-478.14794	832.07291	1053.791452	-220.297634	668.035218	1080.320882	-401.973157	665.572242	1076.84952	-299.998041	782.974069	862.186798	-170.326507	899.766721	786.029981	-180.481927	873.386631	656.722093	-214.282636	685.763675	863.14546	-531.7669540000001	732.376757	728.170723	-504.04832	632.742089	637.86103	-483.900941	975.590319	431.843535	-275.158907	946.655478	375.457257	-218.367674	953.541646	265.082238	-285.386613	557.571586	409.099335	-415.530552	467.925011	363.056868	-471.497817	467.744274	279.751641	-407.724759	836.910495	134.351803	-302.466619	1061.83809	106.012093	-305.330902	1006.133413	90.10239799999999	-216.729129	300.660219	232.473391	-396.964882	458.518622	74.004423	-357.202085	402.280354	72.107471	-446.023399	852.142969	1514.118586	-529.878686	794.318528	1541.817759	-203.02482	867.713696	1466.852101	-324.304063	759.974208	1546.43241	-377.381098	708.1885569999999	1488.850385	-139.357965	635.565612	1439.934836	-188.77756	629.577708	1388.276125	-128.984457	555.529572	1304.487734	-116.895195	565.782517	1294.106549	-198.694621	829.250494	1421.13167	-609.091985	770.195968	1340.743215	-593.133548	798.356238	1275.866217	-638.134175	815.816073	1190.424682	-656.615696	774.279982	1180.524316	-589.9982639999999	628.850884	1230.827079	-83.97859699999999	750.033604	1128.506296	-83.91565199999999	691.446171	1085.440193	-86.43867400000001	916.223086	1193.327637	-610.569307	1027.052275	1199.820218	-491.246406	1037.870605	1135.83833	-520.934231	
129	1.71	845.827803	1046.441252	-476.348778	833.84013	1057.51203	-220.18156	671.698469	1084.034359	-402.572751	668.005909	1081.106388	-299.678419	781.5238000000001	865.8639449999999	-170.310576	897.241943	785.876614	-181.081049	867.710597	657.061822	-213.417686	682.818446	867.386809	-532.057632	729.521715	732.286819	-504.94688	630.217132	643.5713040000001	-485.363754	979.920884	432.870886	-277.294154	954.322908	373.736504	-217.548365	971.156188	264.754721	-286.0585	549.163696	415.399797	-416.677499	460.488458	373.028657	-475.251183	456.686084	288.152727	-409.606799	867.490877	122.42956	-300.257919	1093.331351	117.020364	-308.157541	1042.271683	95.600061	-218.02946	291.660739	249.875461	-398.128072	435.989071	78.56904400000001	-358.659233	380.271031	81.40257099999999	-448.879254	853.054188	1518.292396	-527.4732749999999	793.943764	1544.17244	-201.661955	867.983729	1470.000391	-322.600424	760.511367	1549.004555	-376.249715	707.055355	1492.225412	-138.810048	635.687684	1443.095955	-189.780875	627.900895	1391.81787	-130.010067	553.662335	1307.866162	-118.827339	565.159801	1297.614669	-200.409196	831.932407	1426.394178	-608.651539	772.9331120000001	1346.315702	-594.7877999999999	801.674563	1281.490487	-639.691151	819.803512	1196.19531	-658.530945	775.104979	1185.903766	-591.752745	626.684869	1234.211535	-85.16204399999999	748.853012	1132.531395	-83.624695	690.7565039999999	1089.142573	-87.20056700000001	918.243768	1200.24599	-609.215924	1024.790451	1208.78063	-486.293029	1038.726724	1144.771803	-516.441179	
130	1.72	847.532825	1049.017809	-474.892257	835.40495	1059.841689	-220.029755	675.131864	1086.734114	-403.055181	670.144332	1084.053641	-299.28075	779.006834	867.545065	-171.042241	894.2371460000001	785.075438	-182.139737	862.312397	655.780406	-211.793043	682.5448730000001	870.266511	-531.7908619999999	729.3485920000001	735.022613	-505.235202	630.891371	647.252304	-486.891107	982.994364	433.31121	-279.39713	959.422143	372.214023	-216.563903	985.345982	264.905129	-286.145375	543.37994	419.698386	-417.133662	455.869	381.389585	-479.157564	447.07039	295.492196	-410.995044	894.045646	113.376387	-299.090688	1118.353627	128.343955	-310.096909	1072.121907	102.059354	-219.240607	284.558659	267.033182	-399.296608	414.203823	82.765745	-361.423041	358.222939	91.28959500000001	-451.162661	853.24508	1521.420496	-525.2768170000001	793.851797	1545.534315	-200.235922	868.217049	1472.02894	-320.996195	761.07353	1550.654659	-375.009778	706.418774	1494.423677	-137.919559	636.255368	1444.858749	-190.252727	626.9555319999999	1393.85471	-130.654703	552.584468	1309.756601	-120.097906	565.101176	1299.430974	-201.427741	833.935128	1430.519023	-608.149031	775.339229	1350.500846	-596.021093	804.705124	1286.028343	-641.262905	823.326817	1200.928837	-660.617709	775.458747	1190.179735	-593.590473	625.546302	1236.26762	-85.698988	748.790403	1135.368996	-82.82174999999999	691.218531	1091.590465	-87.349929	919.75627	1205.383639	-608.027431	1022.309537	1215.216085	-482.249187	1038.930145	1151.519958	-512.6533010000001	
131	1.73	848.324965	1051.028482	-473.812632	836.739267	1060.824431	-219.805569	678.104748	1088.435778	-403.089304	671.63972	1085.50231	-298.755378	776.3068919999999	867.368076	-172.036833	890.953081	783.671334	-183.1963	857.286728	653.035074	-210.341005	684.905909	871.3425109999999	-530.619114	731.72225	735.942816	-504.6108	634.430558	648.509552	-488.103877	984.66434	432.99388	-280.965074	962.81736	370.78431	-216.038834	995.788222	265.236752	-286.237859	540.22633	421.885486	-417.082473	453.191038	388.07815	-482.627018	438.718228	301.609196	-411.926139	914.5455040000001	107.183686	-299.524616	1136.581132	138.949777	-310.358819	1093.660602	107.927628	-220.066958	278.968973	283.796667	-400.705399	392.187189	87.354038	-364.589776	335.413017	101.475857	-451.969117	852.6438879999999	1523.481537	-523.342155	794.015145	1545.904199	-198.712159	868.2924389999999	1472.978751	-319.530208	761.458632	1551.421667	-373.577648	706.353125	1495.294361	-136.64839	637.077993	1445.309916	-189.959215	626.81463	1394.297561	-130.765271	552.3384150000001	1310.084906	-120.58746	565.640113	1299.548055	-201.698936	835.014993	1433.404445	-607.376863	776.946828	1353.312004	-596.532468	806.940536	1289.393411	-642.515525	825.874691	1204.497197	-662.489637	775.267505	1193.254349	-595.315981	625.546775	1236.956904	-85.529461	749.880756	1136.979899	-81.49386199999999	692.7914029999999	1092.719528	-86.801204	920.60442	1208.788999	-607.141361	1019.593289	1218.994179	-478.934919	1038.265485	1155.956702	-509.500063	
132	1.74	848.202006	1052.387788	-473.08387	837.805449	1060.581294	-219.493347	680.109475	1089.100782	-402.457327	672.436089	1085.627772	-298.084791	774.236823	865.688408	-172.613959	887.573448	781.097293	-183.547855	852.930057	649.24448	-209.755845	689.114655	870.5265470000001	-528.374118	735.898542	734.965514	-502.937176	640.255148	647.12959	-488.600522	985.268683	431.999004	-282.053085	965.316923	369.231545	-216.422598	1002.417416	265.232951	-286.84296	539.575303	421.997763	-416.697427	452.086644	393.198492	-484.845572	431.748978	306.734373	-412.514351	927.80551	103.204537	-301.363008	1148.13435	147.736509	-308.682441	1106.248628	111.872408	-220.352992	274.660891	300.097379	-402.459251	369.914863	93.885366	-366.718282	313.089246	112.481347	-451.79179	851.650926	1524.386614	-521.585196	794.426159	1545.283599	-197.058721	868.288494	1472.888765	-318.183422	761.577841	1551.321236	-371.929005	706.85811	1494.791092	-134.865126	637.973868	1444.508523	-188.723591	627.496102	1393.156204	-130.166805	553.006864	1308.817111	-120.150843	566.888399	1298.012658	-201.11313	835.027773	1435.022353	-606.251005	777.437815	1354.807943	-596.234052	807.8976719999999	1291.548978	-643.2445760000001	827.014042	1206.810828	-663.834981	774.422625	1195.100931	-596.7798	626.7624070000001	1236.244202	-84.61044	752.14932	1137.339981	-79.670766	695.487168	1092.518912	-85.489334	920.604045	1210.438322	-606.573941	1016.680293	1220.152332	-476.122935	1036.641444	1157.873663	-506.979656	
